<?xml version="1.0" encoding="utf-8" standalone="no"?>
<!DOCTYPE svg PUBLIC "-//W3C//DTD SVG 1.1//EN"
  "http://www.w3.org/Graphics/SVG/1.1/DTD/svg11.dtd">
<!-- Created with matplotlib (https://matplotlib.org/) -->
<svg height="216pt" version="1.1" viewBox="0 0 360 216" width="360pt" xmlns="http://www.w3.org/2000/svg" xmlns:xlink="http://www.w3.org/1999/xlink">
 <metadata>
  <rdf:RDF xmlns:cc="http://creativecommons.org/ns#" xmlns:dc="http://purl.org/dc/elements/1.1/" xmlns:rdf="http://www.w3.org/1999/02/22-rdf-syntax-ns#">
   <cc:Work>
    <dc:type rdf:resource="http://purl.org/dc/dcmitype/StillImage"/>
    <dc:date>2023-06-21T17:12:58.234898</dc:date>
    <dc:format>image/svg+xml</dc:format>
    <dc:creator>
     <cc:Agent>
      <dc:title>Matplotlib v3.3.4, https://matplotlib.org/</dc:title>
     </cc:Agent>
    </dc:creator>
   </cc:Work>
  </rdf:RDF>
 </metadata>
 <defs>
  <style type="text/css">*{stroke-linecap:butt;stroke-linejoin:round;}</style>
 </defs>
 <g id="figure_1">
  <g id="patch_1">
   <path d="M 0 216 
L 360 216 
L 360 0 
L 0 0 
z
" style="fill:#ffffff;"/>
  </g>
  <g id="axes_1">
   <g id="patch_2">
    <path d="M 45 192.24 
L 324 192.24 
L 324 25.92 
L 45 25.92 
z
" style="fill:#ffffff;"/>
   </g>
   <g id="PathCollection_1">
    <defs>
     <path d="M 0 3 
C 0.795609 3 1.55874 2.683901 2.12132 2.12132 
C 2.683901 1.55874 3 0.795609 3 0 
C 3 -0.795609 2.683901 -1.55874 2.12132 -2.12132 
C 1.55874 -2.683901 0.795609 -3 0 -3 
C -0.795609 -3 -1.55874 -2.683901 -2.12132 -2.12132 
C -2.683901 -1.55874 -3 -0.795609 -3 0 
C -3 0.795609 -2.683901 1.55874 -2.12132 2.12132 
C -1.55874 2.683901 -0.795609 3 0 3 
z
" id="m3541fedd60" style="stroke:#808080;stroke-opacity:0.5;"/>
    </defs>
    <g clip-path="url(#pcb85e615ee)">
     <use style="fill:#808080;fill-opacity:0.5;stroke:#808080;stroke-opacity:0.5;" x="57.681818" xlink:href="#m3541fedd60" y="184.68"/>
     <use style="fill:#808080;fill-opacity:0.5;stroke:#808080;stroke-opacity:0.5;" x="57.681818" xlink:href="#m3541fedd60" y="184.68"/>
     <use style="fill:#808080;fill-opacity:0.5;stroke:#808080;stroke-opacity:0.5;" x="57.681818" xlink:href="#m3541fedd60" y="184.68"/>
     <use style="fill:#808080;fill-opacity:0.5;stroke:#808080;stroke-opacity:0.5;" x="57.681818" xlink:href="#m3541fedd60" y="184.68"/>
     <use style="fill:#808080;fill-opacity:0.5;stroke:#808080;stroke-opacity:0.5;" x="57.681818" xlink:href="#m3541fedd60" y="184.68"/>
     <use style="fill:#808080;fill-opacity:0.5;stroke:#808080;stroke-opacity:0.5;" x="57.681818" xlink:href="#m3541fedd60" y="184.68"/>
     <use style="fill:#808080;fill-opacity:0.5;stroke:#808080;stroke-opacity:0.5;" x="57.681818" xlink:href="#m3541fedd60" y="184.68"/>
     <use style="fill:#808080;fill-opacity:0.5;stroke:#808080;stroke-opacity:0.5;" x="57.681818" xlink:href="#m3541fedd60" y="184.68"/>
     <use style="fill:#808080;fill-opacity:0.5;stroke:#808080;stroke-opacity:0.5;" x="57.681818" xlink:href="#m3541fedd60" y="184.68"/>
     <use style="fill:#808080;fill-opacity:0.5;stroke:#808080;stroke-opacity:0.5;" x="57.681818" xlink:href="#m3541fedd60" y="184.68"/>
     <use style="fill:#808080;fill-opacity:0.5;stroke:#808080;stroke-opacity:0.5;" x="57.681818" xlink:href="#m3541fedd60" y="184.68"/>
     <use style="fill:#808080;fill-opacity:0.5;stroke:#808080;stroke-opacity:0.5;" x="57.681818" xlink:href="#m3541fedd60" y="184.68"/>
     <use style="fill:#808080;fill-opacity:0.5;stroke:#808080;stroke-opacity:0.5;" x="57.681818" xlink:href="#m3541fedd60" y="184.68"/>
     <use style="fill:#808080;fill-opacity:0.5;stroke:#808080;stroke-opacity:0.5;" x="57.681818" xlink:href="#m3541fedd60" y="184.68"/>
     <use style="fill:#808080;fill-opacity:0.5;stroke:#808080;stroke-opacity:0.5;" x="57.681818" xlink:href="#m3541fedd60" y="184.68"/>
     <use style="fill:#808080;fill-opacity:0.5;stroke:#808080;stroke-opacity:0.5;" x="57.681818" xlink:href="#m3541fedd60" y="184.68"/>
     <use style="fill:#808080;fill-opacity:0.5;stroke:#808080;stroke-opacity:0.5;" x="57.681818" xlink:href="#m3541fedd60" y="184.68"/>
     <use style="fill:#808080;fill-opacity:0.5;stroke:#808080;stroke-opacity:0.5;" x="57.681818" xlink:href="#m3541fedd60" y="184.68"/>
     <use style="fill:#808080;fill-opacity:0.5;stroke:#808080;stroke-opacity:0.5;" x="57.681818" xlink:href="#m3541fedd60" y="184.68"/>
     <use style="fill:#808080;fill-opacity:0.5;stroke:#808080;stroke-opacity:0.5;" x="57.681818" xlink:href="#m3541fedd60" y="184.68"/>
     <use style="fill:#808080;fill-opacity:0.5;stroke:#808080;stroke-opacity:0.5;" x="57.681818" xlink:href="#m3541fedd60" y="184.68"/>
     <use style="fill:#808080;fill-opacity:0.5;stroke:#808080;stroke-opacity:0.5;" x="57.681818" xlink:href="#m3541fedd60" y="184.68"/>
     <use style="fill:#808080;fill-opacity:0.5;stroke:#808080;stroke-opacity:0.5;" x="57.681818" xlink:href="#m3541fedd60" y="184.68"/>
     <use style="fill:#808080;fill-opacity:0.5;stroke:#808080;stroke-opacity:0.5;" x="57.681818" xlink:href="#m3541fedd60" y="184.68"/>
     <use style="fill:#808080;fill-opacity:0.5;stroke:#808080;stroke-opacity:0.5;" x="57.681818" xlink:href="#m3541fedd60" y="184.68"/>
     <use style="fill:#808080;fill-opacity:0.5;stroke:#808080;stroke-opacity:0.5;" x="57.681818" xlink:href="#m3541fedd60" y="184.68"/>
     <use style="fill:#808080;fill-opacity:0.5;stroke:#808080;stroke-opacity:0.5;" x="57.681818" xlink:href="#m3541fedd60" y="184.68"/>
     <use style="fill:#808080;fill-opacity:0.5;stroke:#808080;stroke-opacity:0.5;" x="57.681818" xlink:href="#m3541fedd60" y="184.68"/>
     <use style="fill:#808080;fill-opacity:0.5;stroke:#808080;stroke-opacity:0.5;" x="57.681818" xlink:href="#m3541fedd60" y="184.68"/>
     <use style="fill:#808080;fill-opacity:0.5;stroke:#808080;stroke-opacity:0.5;" x="57.681818" xlink:href="#m3541fedd60" y="184.68"/>
     <use style="fill:#808080;fill-opacity:0.5;stroke:#808080;stroke-opacity:0.5;" x="57.681818" xlink:href="#m3541fedd60" y="184.68"/>
     <use style="fill:#808080;fill-opacity:0.5;stroke:#808080;stroke-opacity:0.5;" x="57.681818" xlink:href="#m3541fedd60" y="184.68"/>
     <use style="fill:#808080;fill-opacity:0.5;stroke:#808080;stroke-opacity:0.5;" x="57.681818" xlink:href="#m3541fedd60" y="184.68"/>
     <use style="fill:#808080;fill-opacity:0.5;stroke:#808080;stroke-opacity:0.5;" x="57.681818" xlink:href="#m3541fedd60" y="184.68"/>
     <use style="fill:#808080;fill-opacity:0.5;stroke:#808080;stroke-opacity:0.5;" x="57.681818" xlink:href="#m3541fedd60" y="184.68"/>
     <use style="fill:#808080;fill-opacity:0.5;stroke:#808080;stroke-opacity:0.5;" x="57.681818" xlink:href="#m3541fedd60" y="184.68"/>
    </g>
   </g>
   <g id="PathCollection_2">
    <defs>
     <path d="M 0 3.535534 
C 0.937635 3.535534 1.836992 3.163008 2.5 2.5 
C 3.163008 1.836992 3.535534 0.937635 3.535534 -0 
C 3.535534 -0.937635 3.163008 -1.836992 2.5 -2.5 
C 1.836992 -3.163008 0.937635 -3.535534 0 -3.535534 
C -0.937635 -3.535534 -1.836992 -3.163008 -2.5 -2.5 
C -3.163008 -1.836992 -3.535534 -0.937635 -3.535534 0 
C -3.535534 0.937635 -3.163008 1.836992 -2.5 2.5 
C -1.836992 3.163008 -0.937635 3.535534 0 3.535534 
z
" id="C0_0_ba2c786b7e"/>
    </defs>
    <g clip-path="url(#pcb85e615ee)">
     <use style="fill:#a90d45;fill-opacity:0.9;stroke:#a90d45;stroke-opacity:0.9;" x="311.318182" xlink:href="#C0_0_ba2c786b7e" y="33.48"/>
    </g>
    <g clip-path="url(#pcb85e615ee)">
     <use style="fill:#b61b48;fill-opacity:0.9;stroke:#b61b48;stroke-opacity:0.9;" x="168.824392" xlink:href="#C0_0_ba2c786b7e" y="65.482312"/>
    </g>
    <g clip-path="url(#pcb85e615ee)">
     <use style="fill:#b81e48;fill-opacity:0.9;stroke:#b81e48;stroke-opacity:0.9;" x="293.560182" xlink:href="#C0_0_ba2c786b7e" y="73.040024"/>
    </g>
    <g clip-path="url(#pcb85e615ee)">
     <use style="fill:#c52c4b;fill-opacity:0.9;stroke:#c52c4b;stroke-opacity:0.9;" x="156.179985" xlink:href="#C0_0_ba2c786b7e" y="98.033123"/>
    </g>
    <g clip-path="url(#pcb85e615ee)">
     <use style="fill:#c72e4c;fill-opacity:0.9;stroke:#c72e4c;stroke-opacity:0.9;" x="248.970296" xlink:href="#C0_0_ba2c786b7e" y="102.553368"/>
    </g>
    <g clip-path="url(#pcb85e615ee)">
     <use style="fill:#d7414e;fill-opacity:0.9;stroke:#d7414e;stroke-opacity:0.9;" x="84.087734" xlink:href="#C0_0_ba2c786b7e" y="126.946756"/>
    </g>
    <g clip-path="url(#pcb85e615ee)">
     <use style="fill:#d7414e;fill-opacity:0.9;stroke:#d7414e;stroke-opacity:0.9;" x="164.745217" xlink:href="#C0_0_ba2c786b7e" y="128.507391"/>
    </g>
    <g clip-path="url(#pcb85e615ee)">
     <use style="fill:#d8434e;fill-opacity:0.9;stroke:#d8434e;stroke-opacity:0.9;" x="63.163562" xlink:href="#C0_0_ba2c786b7e" y="129.696758"/>
    </g>
    <g clip-path="url(#pcb85e615ee)">
     <use style="fill:#d9444d;fill-opacity:0.9;stroke:#d9444d;stroke-opacity:0.9;" x="83.793376" xlink:href="#C0_0_ba2c786b7e" y="132.498005"/>
    </g>
    <g clip-path="url(#pcb85e615ee)">
     <use style="fill:#d9444d;fill-opacity:0.9;stroke:#d9444d;stroke-opacity:0.9;" x="63.163562" xlink:href="#C0_0_ba2c786b7e" y="132.95995"/>
    </g>
    <g clip-path="url(#pcb85e615ee)">
     <use style="fill:#da464d;fill-opacity:0.9;stroke:#da464d;stroke-opacity:0.9;" x="72.491688" xlink:href="#C0_0_ba2c786b7e" y="133.861128"/>
    </g>
    <g clip-path="url(#pcb85e615ee)">
     <use style="fill:#df4e4b;fill-opacity:0.9;stroke:#df4e4b;stroke-opacity:0.9;" x="65.904434" xlink:href="#C0_0_ba2c786b7e" y="143.109714"/>
    </g>
    <g clip-path="url(#pcb85e615ee)">
     <use style="fill:#e2514a;fill-opacity:0.9;stroke:#e2514a;stroke-opacity:0.9;" x="71.299568" xlink:href="#C0_0_ba2c786b7e" y="145.887603"/>
    </g>
    <g clip-path="url(#pcb85e615ee)">
     <use style="fill:#e2514a;fill-opacity:0.9;stroke:#e2514a;stroke-opacity:0.9;" x="119.193561" xlink:href="#C0_0_ba2c786b7e" y="146.538203"/>
    </g>
    <g clip-path="url(#pcb85e615ee)">
     <use style="fill:#e2514a;fill-opacity:0.9;stroke:#e2514a;stroke-opacity:0.9;" x="105.755008" xlink:href="#C0_0_ba2c786b7e" y="146.912839"/>
    </g>
    <g clip-path="url(#pcb85e615ee)">
     <use style="fill:#e3534a;fill-opacity:0.9;stroke:#e3534a;stroke-opacity:0.9;" x="63.163562" xlink:href="#C0_0_ba2c786b7e" y="147.354129"/>
    </g>
    <g clip-path="url(#pcb85e615ee)">
     <use style="fill:#e95c47;fill-opacity:0.9;stroke:#e95c47;stroke-opacity:0.9;" x="65.848914" xlink:href="#C0_0_ba2c786b7e" y="155.691593"/>
    </g>
    <g clip-path="url(#pcb85e615ee)">
     <use style="fill:#eb6046;fill-opacity:0.9;stroke:#eb6046;stroke-opacity:0.9;" x="104.868587" xlink:href="#C0_0_ba2c786b7e" y="157.995913"/>
    </g>
    <g clip-path="url(#pcb85e615ee)">
     <use style="fill:#eb6046;fill-opacity:0.9;stroke:#eb6046;stroke-opacity:0.9;" x="122.586305" xlink:href="#C0_0_ba2c786b7e" y="158.194807"/>
    </g>
    <g clip-path="url(#pcb85e615ee)">
     <use style="fill:#ed6246;fill-opacity:0.9;stroke:#ed6246;stroke-opacity:0.9;" x="88.666221" xlink:href="#C0_0_ba2c786b7e" y="158.900052"/>
    </g>
    <g clip-path="url(#pcb85e615ee)">
     <use style="fill:#ee6445;fill-opacity:0.9;stroke:#ee6445;stroke-opacity:0.9;" x="116.394664" xlink:href="#C0_0_ba2c786b7e" y="159.818967"/>
    </g>
    <g clip-path="url(#pcb85e615ee)">
     <use style="fill:#f47044;fill-opacity:0.9;stroke:#f47044;stroke-opacity:0.9;" x="63.163562" xlink:href="#C0_0_ba2c786b7e" y="166.347183"/>
    </g>
    <g clip-path="url(#pcb85e615ee)">
     <use style="fill:#f57245;fill-opacity:0.9;stroke:#f57245;stroke-opacity:0.9;" x="66.896042" xlink:href="#C0_0_ba2c786b7e" y="167.038741"/>
    </g>
    <g clip-path="url(#pcb85e615ee)">
     <use style="fill:#f57245;fill-opacity:0.9;stroke:#f57245;stroke-opacity:0.9;" x="64.317232" xlink:href="#C0_0_ba2c786b7e" y="167.076208"/>
    </g>
    <g clip-path="url(#pcb85e615ee)">
     <use style="fill:#f57547;fill-opacity:0.9;stroke:#f57547;stroke-opacity:0.9;" x="63.163562" xlink:href="#C0_0_ba2c786b7e" y="168.012909"/>
    </g>
    <g clip-path="url(#pcb85e615ee)">
     <use style="fill:#f57748;fill-opacity:0.9;stroke:#f57748;stroke-opacity:0.9;" x="63.163562" xlink:href="#C0_0_ba2c786b7e" y="168.432841"/>
    </g>
    <g clip-path="url(#pcb85e615ee)">
     <use style="fill:#f67f4b;fill-opacity:0.9;stroke:#f67f4b;stroke-opacity:0.9;" x="63.44071" xlink:href="#C0_0_ba2c786b7e" y="170.497916"/>
    </g>
    <g clip-path="url(#pcb85e615ee)">
     <use style="fill:#f99153;fill-opacity:0.9;stroke:#f99153;stroke-opacity:0.9;" x="61.793126" xlink:href="#C0_0_ba2c786b7e" y="174.173584"/>
    </g>
    <g clip-path="url(#pcb85e615ee)">
     <use style="fill:#f99153;fill-opacity:0.9;stroke:#f99153;stroke-opacity:0.9;" x="76.114169" xlink:href="#C0_0_ba2c786b7e" y="174.224555"/>
    </g>
    <g clip-path="url(#pcb85e615ee)">
     <use style="fill:#f99153;fill-opacity:0.9;stroke:#f99153;stroke-opacity:0.9;" x="89.997991" xlink:href="#C0_0_ba2c786b7e" y="174.408198"/>
    </g>
    <g clip-path="url(#pcb85e615ee)">
     <use style="fill:#f99153;fill-opacity:0.9;stroke:#f99153;stroke-opacity:0.9;" x="75.464286" xlink:href="#C0_0_ba2c786b7e" y="174.427061"/>
    </g>
    <g clip-path="url(#pcb85e615ee)">
     <use style="fill:#fa9857;fill-opacity:0.9;stroke:#fa9857;stroke-opacity:0.9;" x="64.841217" xlink:href="#C0_0_ba2c786b7e" y="175.578005"/>
    </g>
    <g clip-path="url(#pcb85e615ee)">
     <use style="fill:#fa9857;fill-opacity:0.9;stroke:#fa9857;stroke-opacity:0.9;" x="61.793126" xlink:href="#C0_0_ba2c786b7e" y="175.740203"/>
    </g>
    <g clip-path="url(#pcb85e615ee)">
     <use style="fill:#fa9b58;fill-opacity:0.9;stroke:#fa9b58;stroke-opacity:0.9;" x="60.814243" xlink:href="#C0_0_ba2c786b7e" y="175.900801"/>
    </g>
    <g clip-path="url(#pcb85e615ee)">
     <use style="fill:#fca55d;fill-opacity:0.9;stroke:#fca55d;stroke-opacity:0.9;" x="63.05169" xlink:href="#C0_0_ba2c786b7e" y="177.285964"/>
    </g>
    <g clip-path="url(#pcb85e615ee)">
     <use style="fill:#fca55d;fill-opacity:0.9;stroke:#fca55d;stroke-opacity:0.9;" x="66.818058" xlink:href="#C0_0_ba2c786b7e" y="177.468491"/>
    </g>
    <g clip-path="url(#pcb85e615ee)">
     <use style="fill:#fca85e;fill-opacity:0.9;stroke:#fca85e;stroke-opacity:0.9;" x="63.1793" xlink:href="#C0_0_ba2c786b7e" y="177.757849"/>
    </g>
    <g clip-path="url(#pcb85e615ee)">
     <use style="fill:#fcaa5f;fill-opacity:0.9;stroke:#fcaa5f;stroke-opacity:0.9;" x="60.42269" xlink:href="#C0_0_ba2c786b7e" y="178.182958"/>
    </g>
    <g clip-path="url(#pcb85e615ee)">
     <use style="fill:#fdaf62;fill-opacity:0.9;stroke:#fdaf62;stroke-opacity:0.9;" x="68.911778" xlink:href="#C0_0_ba2c786b7e" y="178.646803"/>
    </g>
    <g clip-path="url(#pcb85e615ee)">
     <use style="fill:#fdb163;fill-opacity:0.9;stroke:#fdb163;stroke-opacity:0.9;" x="63.163562" xlink:href="#C0_0_ba2c786b7e" y="179.027111"/>
    </g>
    <g clip-path="url(#pcb85e615ee)">
     <use style="fill:#fdb768;fill-opacity:0.9;stroke:#fdb768;stroke-opacity:0.9;" x="68.535872" xlink:href="#C0_0_ba2c786b7e" y="179.728029"/>
    </g>
    <g clip-path="url(#pcb85e615ee)">
     <use style="fill:#fdbf6f;fill-opacity:0.9;stroke:#fdbf6f;stroke-opacity:0.9;" x="60.970865" xlink:href="#C0_0_ba2c786b7e" y="180.441865"/>
    </g>
    <g clip-path="url(#pcb85e615ee)">
     <use style="fill:#fdbf6f;fill-opacity:0.9;stroke:#fdbf6f;stroke-opacity:0.9;" x="68.992684" xlink:href="#C0_0_ba2c786b7e" y="180.537307"/>
    </g>
    <g clip-path="url(#pcb85e615ee)">
     <use style="fill:#fdc372;fill-opacity:0.9;stroke:#fdc372;stroke-opacity:0.9;" x="60.42269" xlink:href="#C0_0_ba2c786b7e" y="180.789756"/>
    </g>
    <g clip-path="url(#pcb85e615ee)">
     <use style="fill:#fdc372;fill-opacity:0.9;stroke:#fdc372;stroke-opacity:0.9;" x="68.992684" xlink:href="#C0_0_ba2c786b7e" y="180.823332"/>
    </g>
    <g clip-path="url(#pcb85e615ee)">
     <use style="fill:#fdc574;fill-opacity:0.9;stroke:#fdc574;stroke-opacity:0.9;" x="60.970865" xlink:href="#C0_0_ba2c786b7e" y="181.063348"/>
    </g>
    <g clip-path="url(#pcb85e615ee)">
     <use style="fill:#fed27f;fill-opacity:0.9;stroke:#fed27f;stroke-opacity:0.9;" x="66.837392" xlink:href="#C0_0_ba2c786b7e" y="182.031249"/>
    </g>
    <g clip-path="url(#pcb85e615ee)">
     <use style="fill:#fed683;fill-opacity:0.9;stroke:#fed683;stroke-opacity:0.9;" x="61.793126" xlink:href="#C0_0_ba2c786b7e" y="182.168782"/>
    </g>
    <g clip-path="url(#pcb85e615ee)">
     <use style="fill:#fee18d;fill-opacity:0.9;stroke:#fee18d;stroke-opacity:0.9;" x="63.819372" xlink:href="#C0_0_ba2c786b7e" y="182.81158"/>
    </g>
    <g clip-path="url(#pcb85e615ee)">
     <use style="fill:#fee491;fill-opacity:0.9;stroke:#fee491;stroke-opacity:0.9;" x="66.295987" xlink:href="#C0_0_ba2c786b7e" y="182.989664"/>
    </g>
    <g clip-path="url(#pcb85e615ee)">
     <use style="fill:#fee695;fill-opacity:0.9;stroke:#fee695;stroke-opacity:0.9;" x="63.819372" xlink:href="#C0_0_ba2c786b7e" y="183.10202"/>
    </g>
   </g>
   <g id="matplotlib.axis_1">
    <g id="xtick_1">
     <g id="line2d_1">
      <defs>
       <path d="M 0 0 
L 0 3.5 
" id="mea2ece2532" style="stroke:#000000;stroke-width:0.8;"/>
      </defs>
      <g>
       <use style="stroke:#000000;stroke-width:0.8;" x="57.681818" xlink:href="#mea2ece2532" y="192.24"/>
      </g>
     </g>
     <g id="text_1">
      <!-- 0 -->
      <g transform="translate(53.228068 209.877813)scale(0.14 -0.14)">
       <defs>
        <path d="M 31.78125 66.40625 
Q 24.171875 66.40625 20.328125 58.90625 
Q 16.5 51.421875 16.5 36.375 
Q 16.5 21.390625 20.328125 13.890625 
Q 24.171875 6.390625 31.78125 6.390625 
Q 39.453125 6.390625 43.28125 13.890625 
Q 47.125 21.390625 47.125 36.375 
Q 47.125 51.421875 43.28125 58.90625 
Q 39.453125 66.40625 31.78125 66.40625 
z
M 31.78125 74.21875 
Q 44.046875 74.21875 50.515625 64.515625 
Q 56.984375 54.828125 56.984375 36.375 
Q 56.984375 17.96875 50.515625 8.265625 
Q 44.046875 -1.421875 31.78125 -1.421875 
Q 19.53125 -1.421875 13.0625 8.265625 
Q 6.59375 17.96875 6.59375 36.375 
Q 6.59375 54.828125 13.0625 64.515625 
Q 19.53125 74.21875 31.78125 74.21875 
z
" id="DejaVuSans-48"/>
       </defs>
       <use xlink:href="#DejaVuSans-48"/>
      </g>
     </g>
    </g>
    <g id="xtick_2">
     <g id="line2d_2">
      <g>
       <use style="stroke:#000000;stroke-width:0.8;" x="90.572282" xlink:href="#mea2ece2532" y="192.24"/>
      </g>
     </g>
     <g id="text_2">
      <!-- 2 -->
      <g transform="translate(86.118532 209.877813)scale(0.14 -0.14)">
       <defs>
        <path d="M 19.1875 8.296875 
L 53.609375 8.296875 
L 53.609375 0 
L 7.328125 0 
L 7.328125 8.296875 
Q 12.9375 14.109375 22.625 23.890625 
Q 32.328125 33.6875 34.8125 36.53125 
Q 39.546875 41.84375 41.421875 45.53125 
Q 43.3125 49.21875 43.3125 52.78125 
Q 43.3125 58.59375 39.234375 62.25 
Q 35.15625 65.921875 28.609375 65.921875 
Q 23.96875 65.921875 18.8125 64.3125 
Q 13.671875 62.703125 7.8125 59.421875 
L 7.8125 69.390625 
Q 13.765625 71.78125 18.9375 73 
Q 24.125 74.21875 28.421875 74.21875 
Q 39.75 74.21875 46.484375 68.546875 
Q 53.21875 62.890625 53.21875 53.421875 
Q 53.21875 48.921875 51.53125 44.890625 
Q 49.859375 40.875 45.40625 35.40625 
Q 44.1875 33.984375 37.640625 27.21875 
Q 31.109375 20.453125 19.1875 8.296875 
z
" id="DejaVuSans-50"/>
       </defs>
       <use xlink:href="#DejaVuSans-50"/>
      </g>
     </g>
    </g>
    <g id="xtick_3">
     <g id="line2d_3">
      <g>
       <use style="stroke:#000000;stroke-width:0.8;" x="123.462745" xlink:href="#mea2ece2532" y="192.24"/>
      </g>
     </g>
     <g id="text_3">
      <!-- 4 -->
      <g transform="translate(119.008995 209.877813)scale(0.14 -0.14)">
       <defs>
        <path d="M 37.796875 64.3125 
L 12.890625 25.390625 
L 37.796875 25.390625 
z
M 35.203125 72.90625 
L 47.609375 72.90625 
L 47.609375 25.390625 
L 58.015625 25.390625 
L 58.015625 17.1875 
L 47.609375 17.1875 
L 47.609375 0 
L 37.796875 0 
L 37.796875 17.1875 
L 4.890625 17.1875 
L 4.890625 26.703125 
z
" id="DejaVuSans-52"/>
       </defs>
       <use xlink:href="#DejaVuSans-52"/>
      </g>
     </g>
    </g>
    <g id="xtick_4">
     <g id="line2d_4">
      <g>
       <use style="stroke:#000000;stroke-width:0.8;" x="156.353208" xlink:href="#mea2ece2532" y="192.24"/>
      </g>
     </g>
     <g id="text_4">
      <!-- 6 -->
      <g transform="translate(151.899458 209.877813)scale(0.14 -0.14)">
       <defs>
        <path d="M 33.015625 40.375 
Q 26.375 40.375 22.484375 35.828125 
Q 18.609375 31.296875 18.609375 23.390625 
Q 18.609375 15.53125 22.484375 10.953125 
Q 26.375 6.390625 33.015625 6.390625 
Q 39.65625 6.390625 43.53125 10.953125 
Q 47.40625 15.53125 47.40625 23.390625 
Q 47.40625 31.296875 43.53125 35.828125 
Q 39.65625 40.375 33.015625 40.375 
z
M 52.59375 71.296875 
L 52.59375 62.3125 
Q 48.875 64.0625 45.09375 64.984375 
Q 41.3125 65.921875 37.59375 65.921875 
Q 27.828125 65.921875 22.671875 59.328125 
Q 17.53125 52.734375 16.796875 39.40625 
Q 19.671875 43.65625 24.015625 45.921875 
Q 28.375 48.1875 33.59375 48.1875 
Q 44.578125 48.1875 50.953125 41.515625 
Q 57.328125 34.859375 57.328125 23.390625 
Q 57.328125 12.15625 50.6875 5.359375 
Q 44.046875 -1.421875 33.015625 -1.421875 
Q 20.359375 -1.421875 13.671875 8.265625 
Q 6.984375 17.96875 6.984375 36.375 
Q 6.984375 53.65625 15.1875 63.9375 
Q 23.390625 74.21875 37.203125 74.21875 
Q 40.921875 74.21875 44.703125 73.484375 
Q 48.484375 72.75 52.59375 71.296875 
z
" id="DejaVuSans-54"/>
       </defs>
       <use xlink:href="#DejaVuSans-54"/>
      </g>
     </g>
    </g>
    <g id="xtick_5">
     <g id="line2d_5">
      <g>
       <use style="stroke:#000000;stroke-width:0.8;" x="189.243672" xlink:href="#mea2ece2532" y="192.24"/>
      </g>
     </g>
     <g id="text_5">
      <!-- 8 -->
      <g transform="translate(184.789922 209.877813)scale(0.14 -0.14)">
       <defs>
        <path d="M 31.78125 34.625 
Q 24.75 34.625 20.71875 30.859375 
Q 16.703125 27.09375 16.703125 20.515625 
Q 16.703125 13.921875 20.71875 10.15625 
Q 24.75 6.390625 31.78125 6.390625 
Q 38.8125 6.390625 42.859375 10.171875 
Q 46.921875 13.96875 46.921875 20.515625 
Q 46.921875 27.09375 42.890625 30.859375 
Q 38.875 34.625 31.78125 34.625 
z
M 21.921875 38.8125 
Q 15.578125 40.375 12.03125 44.71875 
Q 8.5 49.078125 8.5 55.328125 
Q 8.5 64.0625 14.71875 69.140625 
Q 20.953125 74.21875 31.78125 74.21875 
Q 42.671875 74.21875 48.875 69.140625 
Q 55.078125 64.0625 55.078125 55.328125 
Q 55.078125 49.078125 51.53125 44.71875 
Q 48 40.375 41.703125 38.8125 
Q 48.828125 37.15625 52.796875 32.3125 
Q 56.78125 27.484375 56.78125 20.515625 
Q 56.78125 9.90625 50.3125 4.234375 
Q 43.84375 -1.421875 31.78125 -1.421875 
Q 19.734375 -1.421875 13.25 4.234375 
Q 6.78125 9.90625 6.78125 20.515625 
Q 6.78125 27.484375 10.78125 32.3125 
Q 14.796875 37.15625 21.921875 38.8125 
z
M 18.3125 54.390625 
Q 18.3125 48.734375 21.84375 45.5625 
Q 25.390625 42.390625 31.78125 42.390625 
Q 38.140625 42.390625 41.71875 45.5625 
Q 45.3125 48.734375 45.3125 54.390625 
Q 45.3125 60.0625 41.71875 63.234375 
Q 38.140625 66.40625 31.78125 66.40625 
Q 25.390625 66.40625 21.84375 63.234375 
Q 18.3125 60.0625 18.3125 54.390625 
z
" id="DejaVuSans-56"/>
       </defs>
       <use xlink:href="#DejaVuSans-56"/>
      </g>
     </g>
    </g>
    <g id="xtick_6">
     <g id="line2d_6">
      <g>
       <use style="stroke:#000000;stroke-width:0.8;" x="222.134135" xlink:href="#mea2ece2532" y="192.24"/>
      </g>
     </g>
     <g id="text_6">
      <!-- 10 -->
      <g transform="translate(213.226635 209.877813)scale(0.14 -0.14)">
       <defs>
        <path d="M 12.40625 8.296875 
L 28.515625 8.296875 
L 28.515625 63.921875 
L 10.984375 60.40625 
L 10.984375 69.390625 
L 28.421875 72.90625 
L 38.28125 72.90625 
L 38.28125 8.296875 
L 54.390625 8.296875 
L 54.390625 0 
L 12.40625 0 
z
" id="DejaVuSans-49"/>
       </defs>
       <use xlink:href="#DejaVuSans-49"/>
       <use x="63.623047" xlink:href="#DejaVuSans-48"/>
      </g>
     </g>
    </g>
    <g id="xtick_7">
     <g id="line2d_7">
      <g>
       <use style="stroke:#000000;stroke-width:0.8;" x="255.024599" xlink:href="#mea2ece2532" y="192.24"/>
      </g>
     </g>
     <g id="text_7">
      <!-- 12 -->
      <g transform="translate(246.117099 209.877813)scale(0.14 -0.14)">
       <use xlink:href="#DejaVuSans-49"/>
       <use x="63.623047" xlink:href="#DejaVuSans-50"/>
      </g>
     </g>
    </g>
    <g id="xtick_8">
     <g id="line2d_8">
      <g>
       <use style="stroke:#000000;stroke-width:0.8;" x="287.915062" xlink:href="#mea2ece2532" y="192.24"/>
      </g>
     </g>
     <g id="text_8">
      <!-- 14 -->
      <g transform="translate(279.007562 209.877813)scale(0.14 -0.14)">
       <use xlink:href="#DejaVuSans-49"/>
       <use x="63.623047" xlink:href="#DejaVuSans-52"/>
      </g>
     </g>
    </g>
    <g id="xtick_9">
     <g id="line2d_9">
      <g>
       <use style="stroke:#000000;stroke-width:0.8;" x="320.805525" xlink:href="#mea2ece2532" y="192.24"/>
      </g>
     </g>
     <g id="text_9">
      <!-- 16 -->
      <g transform="translate(311.898025 209.877813)scale(0.14 -0.14)">
       <use xlink:href="#DejaVuSans-49"/>
       <use x="63.623047" xlink:href="#DejaVuSans-54"/>
      </g>
     </g>
    </g>
    <g id="text_10">
     <!-- weighted number of paths to sccs -->
     <g transform="translate(65.378594 227.427188)scale(0.14 -0.14)">
      <defs>
       <path d="M 4.203125 54.6875 
L 13.1875 54.6875 
L 24.421875 12.015625 
L 35.59375 54.6875 
L 46.1875 54.6875 
L 57.421875 12.015625 
L 68.609375 54.6875 
L 77.59375 54.6875 
L 63.28125 0 
L 52.6875 0 
L 40.921875 44.828125 
L 29.109375 0 
L 18.5 0 
z
" id="DejaVuSans-119"/>
       <path d="M 56.203125 29.59375 
L 56.203125 25.203125 
L 14.890625 25.203125 
Q 15.484375 15.921875 20.484375 11.0625 
Q 25.484375 6.203125 34.421875 6.203125 
Q 39.59375 6.203125 44.453125 7.46875 
Q 49.3125 8.734375 54.109375 11.28125 
L 54.109375 2.78125 
Q 49.265625 0.734375 44.1875 -0.34375 
Q 39.109375 -1.421875 33.890625 -1.421875 
Q 20.796875 -1.421875 13.15625 6.1875 
Q 5.515625 13.8125 5.515625 26.8125 
Q 5.515625 40.234375 12.765625 48.109375 
Q 20.015625 56 32.328125 56 
Q 43.359375 56 49.78125 48.890625 
Q 56.203125 41.796875 56.203125 29.59375 
z
M 47.21875 32.234375 
Q 47.125 39.59375 43.09375 43.984375 
Q 39.0625 48.390625 32.421875 48.390625 
Q 24.90625 48.390625 20.390625 44.140625 
Q 15.875 39.890625 15.1875 32.171875 
z
" id="DejaVuSans-101"/>
       <path d="M 9.421875 54.6875 
L 18.40625 54.6875 
L 18.40625 0 
L 9.421875 0 
z
M 9.421875 75.984375 
L 18.40625 75.984375 
L 18.40625 64.59375 
L 9.421875 64.59375 
z
" id="DejaVuSans-105"/>
       <path d="M 45.40625 27.984375 
Q 45.40625 37.75 41.375 43.109375 
Q 37.359375 48.484375 30.078125 48.484375 
Q 22.859375 48.484375 18.828125 43.109375 
Q 14.796875 37.75 14.796875 27.984375 
Q 14.796875 18.265625 18.828125 12.890625 
Q 22.859375 7.515625 30.078125 7.515625 
Q 37.359375 7.515625 41.375 12.890625 
Q 45.40625 18.265625 45.40625 27.984375 
z
M 54.390625 6.78125 
Q 54.390625 -7.171875 48.1875 -13.984375 
Q 42 -20.796875 29.203125 -20.796875 
Q 24.46875 -20.796875 20.265625 -20.09375 
Q 16.0625 -19.390625 12.109375 -17.921875 
L 12.109375 -9.1875 
Q 16.0625 -11.328125 19.921875 -12.34375 
Q 23.78125 -13.375 27.78125 -13.375 
Q 36.625 -13.375 41.015625 -8.765625 
Q 45.40625 -4.15625 45.40625 5.171875 
L 45.40625 9.625 
Q 42.625 4.78125 38.28125 2.390625 
Q 33.9375 0 27.875 0 
Q 17.828125 0 11.671875 7.65625 
Q 5.515625 15.328125 5.515625 27.984375 
Q 5.515625 40.671875 11.671875 48.328125 
Q 17.828125 56 27.875 56 
Q 33.9375 56 38.28125 53.609375 
Q 42.625 51.21875 45.40625 46.390625 
L 45.40625 54.6875 
L 54.390625 54.6875 
z
" id="DejaVuSans-103"/>
       <path d="M 54.890625 33.015625 
L 54.890625 0 
L 45.90625 0 
L 45.90625 32.71875 
Q 45.90625 40.484375 42.875 44.328125 
Q 39.84375 48.1875 33.796875 48.1875 
Q 26.515625 48.1875 22.3125 43.546875 
Q 18.109375 38.921875 18.109375 30.90625 
L 18.109375 0 
L 9.078125 0 
L 9.078125 75.984375 
L 18.109375 75.984375 
L 18.109375 46.1875 
Q 21.34375 51.125 25.703125 53.5625 
Q 30.078125 56 35.796875 56 
Q 45.21875 56 50.046875 50.171875 
Q 54.890625 44.34375 54.890625 33.015625 
z
" id="DejaVuSans-104"/>
       <path d="M 18.3125 70.21875 
L 18.3125 54.6875 
L 36.8125 54.6875 
L 36.8125 47.703125 
L 18.3125 47.703125 
L 18.3125 18.015625 
Q 18.3125 11.328125 20.140625 9.421875 
Q 21.96875 7.515625 27.59375 7.515625 
L 36.8125 7.515625 
L 36.8125 0 
L 27.59375 0 
Q 17.1875 0 13.234375 3.875 
Q 9.28125 7.765625 9.28125 18.015625 
L 9.28125 47.703125 
L 2.6875 47.703125 
L 2.6875 54.6875 
L 9.28125 54.6875 
L 9.28125 70.21875 
z
" id="DejaVuSans-116"/>
       <path d="M 45.40625 46.390625 
L 45.40625 75.984375 
L 54.390625 75.984375 
L 54.390625 0 
L 45.40625 0 
L 45.40625 8.203125 
Q 42.578125 3.328125 38.25 0.953125 
Q 33.9375 -1.421875 27.875 -1.421875 
Q 17.96875 -1.421875 11.734375 6.484375 
Q 5.515625 14.40625 5.515625 27.296875 
Q 5.515625 40.1875 11.734375 48.09375 
Q 17.96875 56 27.875 56 
Q 33.9375 56 38.25 53.625 
Q 42.578125 51.265625 45.40625 46.390625 
z
M 14.796875 27.296875 
Q 14.796875 17.390625 18.875 11.75 
Q 22.953125 6.109375 30.078125 6.109375 
Q 37.203125 6.109375 41.296875 11.75 
Q 45.40625 17.390625 45.40625 27.296875 
Q 45.40625 37.203125 41.296875 42.84375 
Q 37.203125 48.484375 30.078125 48.484375 
Q 22.953125 48.484375 18.875 42.84375 
Q 14.796875 37.203125 14.796875 27.296875 
z
" id="DejaVuSans-100"/>
       <path id="DejaVuSans-32"/>
       <path d="M 54.890625 33.015625 
L 54.890625 0 
L 45.90625 0 
L 45.90625 32.71875 
Q 45.90625 40.484375 42.875 44.328125 
Q 39.84375 48.1875 33.796875 48.1875 
Q 26.515625 48.1875 22.3125 43.546875 
Q 18.109375 38.921875 18.109375 30.90625 
L 18.109375 0 
L 9.078125 0 
L 9.078125 54.6875 
L 18.109375 54.6875 
L 18.109375 46.1875 
Q 21.34375 51.125 25.703125 53.5625 
Q 30.078125 56 35.796875 56 
Q 45.21875 56 50.046875 50.171875 
Q 54.890625 44.34375 54.890625 33.015625 
z
" id="DejaVuSans-110"/>
       <path d="M 8.5 21.578125 
L 8.5 54.6875 
L 17.484375 54.6875 
L 17.484375 21.921875 
Q 17.484375 14.15625 20.5 10.265625 
Q 23.53125 6.390625 29.59375 6.390625 
Q 36.859375 6.390625 41.078125 11.03125 
Q 45.3125 15.671875 45.3125 23.6875 
L 45.3125 54.6875 
L 54.296875 54.6875 
L 54.296875 0 
L 45.3125 0 
L 45.3125 8.40625 
Q 42.046875 3.421875 37.71875 1 
Q 33.40625 -1.421875 27.6875 -1.421875 
Q 18.265625 -1.421875 13.375 4.4375 
Q 8.5 10.296875 8.5 21.578125 
z
M 31.109375 56 
z
" id="DejaVuSans-117"/>
       <path d="M 52 44.1875 
Q 55.375 50.25 60.0625 53.125 
Q 64.75 56 71.09375 56 
Q 79.640625 56 84.28125 50.015625 
Q 88.921875 44.046875 88.921875 33.015625 
L 88.921875 0 
L 79.890625 0 
L 79.890625 32.71875 
Q 79.890625 40.578125 77.09375 44.375 
Q 74.3125 48.1875 68.609375 48.1875 
Q 61.625 48.1875 57.5625 43.546875 
Q 53.515625 38.921875 53.515625 30.90625 
L 53.515625 0 
L 44.484375 0 
L 44.484375 32.71875 
Q 44.484375 40.625 41.703125 44.40625 
Q 38.921875 48.1875 33.109375 48.1875 
Q 26.21875 48.1875 22.15625 43.53125 
Q 18.109375 38.875 18.109375 30.90625 
L 18.109375 0 
L 9.078125 0 
L 9.078125 54.6875 
L 18.109375 54.6875 
L 18.109375 46.1875 
Q 21.1875 51.21875 25.484375 53.609375 
Q 29.78125 56 35.6875 56 
Q 41.65625 56 45.828125 52.96875 
Q 50 49.953125 52 44.1875 
z
" id="DejaVuSans-109"/>
       <path d="M 48.6875 27.296875 
Q 48.6875 37.203125 44.609375 42.84375 
Q 40.53125 48.484375 33.40625 48.484375 
Q 26.265625 48.484375 22.1875 42.84375 
Q 18.109375 37.203125 18.109375 27.296875 
Q 18.109375 17.390625 22.1875 11.75 
Q 26.265625 6.109375 33.40625 6.109375 
Q 40.53125 6.109375 44.609375 11.75 
Q 48.6875 17.390625 48.6875 27.296875 
z
M 18.109375 46.390625 
Q 20.953125 51.265625 25.265625 53.625 
Q 29.59375 56 35.59375 56 
Q 45.5625 56 51.78125 48.09375 
Q 58.015625 40.1875 58.015625 27.296875 
Q 58.015625 14.40625 51.78125 6.484375 
Q 45.5625 -1.421875 35.59375 -1.421875 
Q 29.59375 -1.421875 25.265625 0.953125 
Q 20.953125 3.328125 18.109375 8.203125 
L 18.109375 0 
L 9.078125 0 
L 9.078125 75.984375 
L 18.109375 75.984375 
z
" id="DejaVuSans-98"/>
       <path d="M 41.109375 46.296875 
Q 39.59375 47.171875 37.8125 47.578125 
Q 36.03125 48 33.890625 48 
Q 26.265625 48 22.1875 43.046875 
Q 18.109375 38.09375 18.109375 28.8125 
L 18.109375 0 
L 9.078125 0 
L 9.078125 54.6875 
L 18.109375 54.6875 
L 18.109375 46.1875 
Q 20.953125 51.171875 25.484375 53.578125 
Q 30.03125 56 36.53125 56 
Q 37.453125 56 38.578125 55.875 
Q 39.703125 55.765625 41.0625 55.515625 
z
" id="DejaVuSans-114"/>
       <path d="M 30.609375 48.390625 
Q 23.390625 48.390625 19.1875 42.75 
Q 14.984375 37.109375 14.984375 27.296875 
Q 14.984375 17.484375 19.15625 11.84375 
Q 23.34375 6.203125 30.609375 6.203125 
Q 37.796875 6.203125 41.984375 11.859375 
Q 46.1875 17.53125 46.1875 27.296875 
Q 46.1875 37.015625 41.984375 42.703125 
Q 37.796875 48.390625 30.609375 48.390625 
z
M 30.609375 56 
Q 42.328125 56 49.015625 48.375 
Q 55.71875 40.765625 55.71875 27.296875 
Q 55.71875 13.875 49.015625 6.21875 
Q 42.328125 -1.421875 30.609375 -1.421875 
Q 18.84375 -1.421875 12.171875 6.21875 
Q 5.515625 13.875 5.515625 27.296875 
Q 5.515625 40.765625 12.171875 48.375 
Q 18.84375 56 30.609375 56 
z
" id="DejaVuSans-111"/>
       <path d="M 37.109375 75.984375 
L 37.109375 68.5 
L 28.515625 68.5 
Q 23.6875 68.5 21.796875 66.546875 
Q 19.921875 64.59375 19.921875 59.515625 
L 19.921875 54.6875 
L 34.71875 54.6875 
L 34.71875 47.703125 
L 19.921875 47.703125 
L 19.921875 0 
L 10.890625 0 
L 10.890625 47.703125 
L 2.296875 47.703125 
L 2.296875 54.6875 
L 10.890625 54.6875 
L 10.890625 58.5 
Q 10.890625 67.625 15.140625 71.796875 
Q 19.390625 75.984375 28.609375 75.984375 
z
" id="DejaVuSans-102"/>
       <path d="M 18.109375 8.203125 
L 18.109375 -20.796875 
L 9.078125 -20.796875 
L 9.078125 54.6875 
L 18.109375 54.6875 
L 18.109375 46.390625 
Q 20.953125 51.265625 25.265625 53.625 
Q 29.59375 56 35.59375 56 
Q 45.5625 56 51.78125 48.09375 
Q 58.015625 40.1875 58.015625 27.296875 
Q 58.015625 14.40625 51.78125 6.484375 
Q 45.5625 -1.421875 35.59375 -1.421875 
Q 29.59375 -1.421875 25.265625 0.953125 
Q 20.953125 3.328125 18.109375 8.203125 
z
M 48.6875 27.296875 
Q 48.6875 37.203125 44.609375 42.84375 
Q 40.53125 48.484375 33.40625 48.484375 
Q 26.265625 48.484375 22.1875 42.84375 
Q 18.109375 37.203125 18.109375 27.296875 
Q 18.109375 17.390625 22.1875 11.75 
Q 26.265625 6.109375 33.40625 6.109375 
Q 40.53125 6.109375 44.609375 11.75 
Q 48.6875 17.390625 48.6875 27.296875 
z
" id="DejaVuSans-112"/>
       <path d="M 34.28125 27.484375 
Q 23.390625 27.484375 19.1875 25 
Q 14.984375 22.515625 14.984375 16.5 
Q 14.984375 11.71875 18.140625 8.90625 
Q 21.296875 6.109375 26.703125 6.109375 
Q 34.1875 6.109375 38.703125 11.40625 
Q 43.21875 16.703125 43.21875 25.484375 
L 43.21875 27.484375 
z
M 52.203125 31.203125 
L 52.203125 0 
L 43.21875 0 
L 43.21875 8.296875 
Q 40.140625 3.328125 35.546875 0.953125 
Q 30.953125 -1.421875 24.3125 -1.421875 
Q 15.921875 -1.421875 10.953125 3.296875 
Q 6 8.015625 6 15.921875 
Q 6 25.140625 12.171875 29.828125 
Q 18.359375 34.515625 30.609375 34.515625 
L 43.21875 34.515625 
L 43.21875 35.40625 
Q 43.21875 41.609375 39.140625 45 
Q 35.0625 48.390625 27.6875 48.390625 
Q 23 48.390625 18.546875 47.265625 
Q 14.109375 46.140625 10.015625 43.890625 
L 10.015625 52.203125 
Q 14.9375 54.109375 19.578125 55.046875 
Q 24.21875 56 28.609375 56 
Q 40.484375 56 46.34375 49.84375 
Q 52.203125 43.703125 52.203125 31.203125 
z
" id="DejaVuSans-97"/>
       <path d="M 44.28125 53.078125 
L 44.28125 44.578125 
Q 40.484375 46.53125 36.375 47.5 
Q 32.28125 48.484375 27.875 48.484375 
Q 21.1875 48.484375 17.84375 46.4375 
Q 14.5 44.390625 14.5 40.28125 
Q 14.5 37.15625 16.890625 35.375 
Q 19.28125 33.59375 26.515625 31.984375 
L 29.59375 31.296875 
Q 39.15625 29.25 43.1875 25.515625 
Q 47.21875 21.78125 47.21875 15.09375 
Q 47.21875 7.46875 41.1875 3.015625 
Q 35.15625 -1.421875 24.609375 -1.421875 
Q 20.21875 -1.421875 15.453125 -0.5625 
Q 10.6875 0.296875 5.421875 2 
L 5.421875 11.28125 
Q 10.40625 8.6875 15.234375 7.390625 
Q 20.0625 6.109375 24.8125 6.109375 
Q 31.15625 6.109375 34.5625 8.28125 
Q 37.984375 10.453125 37.984375 14.40625 
Q 37.984375 18.0625 35.515625 20.015625 
Q 33.0625 21.96875 24.703125 23.78125 
L 21.578125 24.515625 
Q 13.234375 26.265625 9.515625 29.90625 
Q 5.8125 33.546875 5.8125 39.890625 
Q 5.8125 47.609375 11.28125 51.796875 
Q 16.75 56 26.8125 56 
Q 31.78125 56 36.171875 55.265625 
Q 40.578125 54.546875 44.28125 53.078125 
z
" id="DejaVuSans-115"/>
       <path d="M 48.78125 52.59375 
L 48.78125 44.1875 
Q 44.96875 46.296875 41.140625 47.34375 
Q 37.3125 48.390625 33.40625 48.390625 
Q 24.65625 48.390625 19.8125 42.84375 
Q 14.984375 37.3125 14.984375 27.296875 
Q 14.984375 17.28125 19.8125 11.734375 
Q 24.65625 6.203125 33.40625 6.203125 
Q 37.3125 6.203125 41.140625 7.25 
Q 44.96875 8.296875 48.78125 10.40625 
L 48.78125 2.09375 
Q 45.015625 0.34375 40.984375 -0.53125 
Q 36.96875 -1.421875 32.421875 -1.421875 
Q 20.0625 -1.421875 12.78125 6.34375 
Q 5.515625 14.109375 5.515625 27.296875 
Q 5.515625 40.671875 12.859375 48.328125 
Q 20.21875 56 33.015625 56 
Q 37.15625 56 41.109375 55.140625 
Q 45.0625 54.296875 48.78125 52.59375 
z
" id="DejaVuSans-99"/>
      </defs>
      <use xlink:href="#DejaVuSans-119"/>
      <use x="81.787109" xlink:href="#DejaVuSans-101"/>
      <use x="143.310547" xlink:href="#DejaVuSans-105"/>
      <use x="171.09375" xlink:href="#DejaVuSans-103"/>
      <use x="234.570312" xlink:href="#DejaVuSans-104"/>
      <use x="297.949219" xlink:href="#DejaVuSans-116"/>
      <use x="337.158203" xlink:href="#DejaVuSans-101"/>
      <use x="398.681641" xlink:href="#DejaVuSans-100"/>
      <use x="462.158203" xlink:href="#DejaVuSans-32"/>
      <use x="493.945312" xlink:href="#DejaVuSans-110"/>
      <use x="557.324219" xlink:href="#DejaVuSans-117"/>
      <use x="620.703125" xlink:href="#DejaVuSans-109"/>
      <use x="718.115234" xlink:href="#DejaVuSans-98"/>
      <use x="781.591797" xlink:href="#DejaVuSans-101"/>
      <use x="843.115234" xlink:href="#DejaVuSans-114"/>
      <use x="884.228516" xlink:href="#DejaVuSans-32"/>
      <use x="916.015625" xlink:href="#DejaVuSans-111"/>
      <use x="977.197266" xlink:href="#DejaVuSans-102"/>
      <use x="1012.402344" xlink:href="#DejaVuSans-32"/>
      <use x="1044.189453" xlink:href="#DejaVuSans-112"/>
      <use x="1107.666016" xlink:href="#DejaVuSans-97"/>
      <use x="1168.945312" xlink:href="#DejaVuSans-116"/>
      <use x="1208.154297" xlink:href="#DejaVuSans-104"/>
      <use x="1271.533203" xlink:href="#DejaVuSans-115"/>
      <use x="1323.632812" xlink:href="#DejaVuSans-32"/>
      <use x="1355.419922" xlink:href="#DejaVuSans-116"/>
      <use x="1394.628906" xlink:href="#DejaVuSans-111"/>
      <use x="1455.810547" xlink:href="#DejaVuSans-32"/>
      <use x="1487.597656" xlink:href="#DejaVuSans-115"/>
      <use x="1539.697266" xlink:href="#DejaVuSans-99"/>
      <use x="1594.677734" xlink:href="#DejaVuSans-99"/>
      <use x="1649.658203" xlink:href="#DejaVuSans-115"/>
     </g>
    </g>
   </g>
   <g id="matplotlib.axis_2">
    <g id="ytick_1">
     <g id="line2d_10">
      <defs>
       <path d="M 0 0 
L -3.5 0 
" id="m6242382271" style="stroke:#000000;stroke-width:0.8;"/>
      </defs>
      <g>
       <use style="stroke:#000000;stroke-width:0.8;" x="45" xlink:href="#m6242382271" y="184.68"/>
      </g>
     </g>
     <g id="text_11">
      <!-- 0.0 -->
      <g transform="translate(15.735625 189.998906)scale(0.14 -0.14)">
       <defs>
        <path d="M 10.6875 12.40625 
L 21 12.40625 
L 21 0 
L 10.6875 0 
z
" id="DejaVuSans-46"/>
       </defs>
       <use xlink:href="#DejaVuSans-48"/>
       <use x="63.623047" xlink:href="#DejaVuSans-46"/>
       <use x="95.410156" xlink:href="#DejaVuSans-48"/>
      </g>
     </g>
    </g>
    <g id="ytick_2">
     <g id="line2d_11">
      <g>
       <use style="stroke:#000000;stroke-width:0.8;" x="45" xlink:href="#m6242382271" y="145.22697"/>
      </g>
     </g>
     <g id="text_12">
      <!-- 0.2 -->
      <g transform="translate(15.735625 150.545876)scale(0.14 -0.14)">
       <use xlink:href="#DejaVuSans-48"/>
       <use x="63.623047" xlink:href="#DejaVuSans-46"/>
       <use x="95.410156" xlink:href="#DejaVuSans-50"/>
      </g>
     </g>
    </g>
    <g id="ytick_3">
     <g id="line2d_12">
      <g>
       <use style="stroke:#000000;stroke-width:0.8;" x="45" xlink:href="#m6242382271" y="105.773939"/>
      </g>
     </g>
     <g id="text_13">
      <!-- 0.4 -->
      <g transform="translate(15.735625 111.092845)scale(0.14 -0.14)">
       <use xlink:href="#DejaVuSans-48"/>
       <use x="63.623047" xlink:href="#DejaVuSans-46"/>
       <use x="95.410156" xlink:href="#DejaVuSans-52"/>
      </g>
     </g>
    </g>
    <g id="ytick_4">
     <g id="line2d_13">
      <g>
       <use style="stroke:#000000;stroke-width:0.8;" x="45" xlink:href="#m6242382271" y="66.320909"/>
      </g>
     </g>
     <g id="text_14">
      <!-- 0.6 -->
      <g transform="translate(15.735625 71.639815)scale(0.14 -0.14)">
       <use xlink:href="#DejaVuSans-48"/>
       <use x="63.623047" xlink:href="#DejaVuSans-46"/>
       <use x="95.410156" xlink:href="#DejaVuSans-54"/>
      </g>
     </g>
    </g>
    <g id="ytick_5">
     <g id="line2d_14">
      <g>
       <use style="stroke:#000000;stroke-width:0.8;" x="45" xlink:href="#m6242382271" y="26.867878"/>
      </g>
     </g>
     <g id="text_15">
      <!-- 0.8 -->
      <g transform="translate(15.735625 32.186785)scale(0.14 -0.14)">
       <use xlink:href="#DejaVuSans-48"/>
       <use x="63.623047" xlink:href="#DejaVuSans-46"/>
       <use x="95.410156" xlink:href="#DejaVuSans-56"/>
      </g>
     </g>
    </g>
    <g id="text_16">
     <!-- Irreversibility prob. -->
     <g transform="translate(8.824062 175.3525)rotate(-90)scale(0.14 -0.14)">
      <defs>
       <path d="M 9.8125 72.90625 
L 19.671875 72.90625 
L 19.671875 0 
L 9.8125 0 
z
" id="DejaVuSans-73"/>
       <path d="M 2.984375 54.6875 
L 12.5 54.6875 
L 29.59375 8.796875 
L 46.6875 54.6875 
L 56.203125 54.6875 
L 35.6875 0 
L 23.484375 0 
z
" id="DejaVuSans-118"/>
       <path d="M 9.421875 75.984375 
L 18.40625 75.984375 
L 18.40625 0 
L 9.421875 0 
z
" id="DejaVuSans-108"/>
       <path d="M 32.171875 -5.078125 
Q 28.375 -14.84375 24.75 -17.8125 
Q 21.140625 -20.796875 15.09375 -20.796875 
L 7.90625 -20.796875 
L 7.90625 -13.28125 
L 13.1875 -13.28125 
Q 16.890625 -13.28125 18.9375 -11.515625 
Q 21 -9.765625 23.484375 -3.21875 
L 25.09375 0.875 
L 2.984375 54.6875 
L 12.5 54.6875 
L 29.59375 11.921875 
L 46.6875 54.6875 
L 56.203125 54.6875 
z
" id="DejaVuSans-121"/>
      </defs>
      <use xlink:href="#DejaVuSans-73"/>
      <use x="29.492188" xlink:href="#DejaVuSans-114"/>
      <use x="68.855469" xlink:href="#DejaVuSans-114"/>
      <use x="107.71875" xlink:href="#DejaVuSans-101"/>
      <use x="169.242188" xlink:href="#DejaVuSans-118"/>
      <use x="228.421875" xlink:href="#DejaVuSans-101"/>
      <use x="289.945312" xlink:href="#DejaVuSans-114"/>
      <use x="331.058594" xlink:href="#DejaVuSans-115"/>
      <use x="383.158203" xlink:href="#DejaVuSans-105"/>
      <use x="410.941406" xlink:href="#DejaVuSans-98"/>
      <use x="474.417969" xlink:href="#DejaVuSans-105"/>
      <use x="502.201172" xlink:href="#DejaVuSans-108"/>
      <use x="529.984375" xlink:href="#DejaVuSans-105"/>
      <use x="557.767578" xlink:href="#DejaVuSans-116"/>
      <use x="596.976562" xlink:href="#DejaVuSans-121"/>
      <use x="656.15625" xlink:href="#DejaVuSans-32"/>
      <use x="687.943359" xlink:href="#DejaVuSans-112"/>
      <use x="751.419922" xlink:href="#DejaVuSans-114"/>
      <use x="790.283203" xlink:href="#DejaVuSans-111"/>
      <use x="851.464844" xlink:href="#DejaVuSans-98"/>
      <use x="914.941406" xlink:href="#DejaVuSans-46"/>
     </g>
    </g>
   </g>
   <g id="patch_3">
    <path d="M 45 192.24 
L 45 25.92 
" style="fill:none;stroke:#000000;stroke-linecap:square;stroke-linejoin:miter;stroke-width:0.8;"/>
   </g>
   <g id="patch_4">
    <path d="M 324 192.24 
L 324 25.92 
" style="fill:none;stroke:#000000;stroke-linecap:square;stroke-linejoin:miter;stroke-width:0.8;"/>
   </g>
   <g id="patch_5">
    <path d="M 45 192.24 
L 324 192.24 
" style="fill:none;stroke:#000000;stroke-linecap:square;stroke-linejoin:miter;stroke-width:0.8;"/>
   </g>
   <g id="patch_6">
    <path d="M 45 25.92 
L 324 25.92 
" style="fill:none;stroke:#000000;stroke-linecap:square;stroke-linejoin:miter;stroke-width:0.8;"/>
   </g>
   <g id="text_17">
    <!-- crp -->
    <g transform="translate(311.318182 33.48)scale(0.14 -0.14)">
     <use xlink:href="#DejaVuSans-99"/>
     <use x="54.980469" xlink:href="#DejaVuSans-114"/>
     <use x="96.09375" xlink:href="#DejaVuSans-112"/>
    </g>
   </g>
   <g id="text_18">
    <!-- phoB -->
    <g transform="translate(168.824392 65.482312)scale(0.14 -0.14)">
     <defs>
      <path d="M 19.671875 34.8125 
L 19.671875 8.109375 
L 35.5 8.109375 
Q 43.453125 8.109375 47.28125 11.40625 
Q 51.125 14.703125 51.125 21.484375 
Q 51.125 28.328125 47.28125 31.5625 
Q 43.453125 34.8125 35.5 34.8125 
z
M 19.671875 64.796875 
L 19.671875 42.828125 
L 34.28125 42.828125 
Q 41.5 42.828125 45.03125 45.53125 
Q 48.578125 48.25 48.578125 53.8125 
Q 48.578125 59.328125 45.03125 62.0625 
Q 41.5 64.796875 34.28125 64.796875 
z
M 9.8125 72.90625 
L 35.015625 72.90625 
Q 46.296875 72.90625 52.390625 68.21875 
Q 58.5 63.53125 58.5 54.890625 
Q 58.5 48.1875 55.375 44.234375 
Q 52.25 40.28125 46.1875 39.3125 
Q 53.46875 37.75 57.5 32.78125 
Q 61.53125 27.828125 61.53125 20.40625 
Q 61.53125 10.640625 54.890625 5.3125 
Q 48.25 0 35.984375 0 
L 9.8125 0 
z
" id="DejaVuSans-66"/>
     </defs>
     <use xlink:href="#DejaVuSans-112"/>
     <use x="63.476562" xlink:href="#DejaVuSans-104"/>
     <use x="126.855469" xlink:href="#DejaVuSans-111"/>
     <use x="188.037109" xlink:href="#DejaVuSans-66"/>
    </g>
   </g>
   <g id="text_19">
    <!-- hns -->
    <g transform="translate(293.560182 73.040024)scale(0.14 -0.14)">
     <use xlink:href="#DejaVuSans-104"/>
     <use x="63.378906" xlink:href="#DejaVuSans-110"/>
     <use x="126.757812" xlink:href="#DejaVuSans-115"/>
    </g>
   </g>
   <g id="text_20">
    <!-- cra -->
    <g transform="translate(156.179985 98.033123)scale(0.14 -0.14)">
     <use xlink:href="#DejaVuSans-99"/>
     <use x="54.980469" xlink:href="#DejaVuSans-114"/>
     <use x="96.09375" xlink:href="#DejaVuSans-97"/>
    </g>
   </g>
   <g id="text_21">
    <!-- fis -->
    <g transform="translate(248.970296 102.553368)scale(0.14 -0.14)">
     <use xlink:href="#DejaVuSans-102"/>
     <use x="35.205078" xlink:href="#DejaVuSans-105"/>
     <use x="62.988281" xlink:href="#DejaVuSans-115"/>
    </g>
   </g>
   <g id="text_22">
    <!-- leuO -->
    <g transform="translate(84.087734 126.946756)scale(0.14 -0.14)">
     <defs>
      <path d="M 39.40625 66.21875 
Q 28.65625 66.21875 22.328125 58.203125 
Q 16.015625 50.203125 16.015625 36.375 
Q 16.015625 22.609375 22.328125 14.59375 
Q 28.65625 6.59375 39.40625 6.59375 
Q 50.140625 6.59375 56.421875 14.59375 
Q 62.703125 22.609375 62.703125 36.375 
Q 62.703125 50.203125 56.421875 58.203125 
Q 50.140625 66.21875 39.40625 66.21875 
z
M 39.40625 74.21875 
Q 54.734375 74.21875 63.90625 63.9375 
Q 73.09375 53.65625 73.09375 36.375 
Q 73.09375 19.140625 63.90625 8.859375 
Q 54.734375 -1.421875 39.40625 -1.421875 
Q 24.03125 -1.421875 14.8125 8.828125 
Q 5.609375 19.09375 5.609375 36.375 
Q 5.609375 53.65625 14.8125 63.9375 
Q 24.03125 74.21875 39.40625 74.21875 
z
" id="DejaVuSans-79"/>
     </defs>
     <use xlink:href="#DejaVuSans-108"/>
     <use x="27.783203" xlink:href="#DejaVuSans-101"/>
     <use x="89.306641" xlink:href="#DejaVuSans-117"/>
     <use x="152.685547" xlink:href="#DejaVuSans-79"/>
    </g>
   </g>
   <g id="text_23">
    <!-- fnr -->
    <g transform="translate(164.745217 128.507391)scale(0.14 -0.14)">
     <use xlink:href="#DejaVuSans-102"/>
     <use x="35.205078" xlink:href="#DejaVuSans-110"/>
     <use x="98.583984" xlink:href="#DejaVuSans-114"/>
    </g>
   </g>
  </g>
 </g>
 <defs>
  <clipPath id="pcb85e615ee">
   <rect height="166.32" width="279" x="45" y="25.92"/>
  </clipPath>
 </defs>
</svg>
